<svg width="80" height="42" viewBox="0 0 80 42" fill="none" xmlns="http://www.w3.org/2000/svg">
<path fill-rule="evenodd" clip-rule="evenodd" d="M17.6775 0L0 41.9068H9.33312L21.9115 11.5584L34.3043 41.9068L43.7805 41.9069H52.9999V28.4969H60.1242H60.2439L69.2239 41.9069H80.0001L69.7626 26.9403C72.4364 25.9431 74.6017 24.3763 76.2583 22.2406C77.9139 20.1059 78.7426 17.3419 78.7426 13.9491V13.8294C78.7426 9.83877 77.5454 6.64534 75.1508 4.25065C72.3164 1.41722 68.2455 3.29667e-05 62.938 3.29667e-05H43.7805V41.8048L26.3309 0H17.6775ZM67.5777 18.7909C66.3598 19.8741 64.6142 20.4147 62.3392 20.4147H52.9999V8.32158H62.1598C64.4345 8.32158 66.2102 8.82283 67.488 9.82565C68.7648 10.8285 69.4036 12.3328 69.4036 14.3385V14.4578C69.4036 16.2631 68.7945 17.7075 67.5777 18.7909Z" fill="black"/>
</svg>
