<svg width="294" height="54" viewBox="0 0 294 54" fill="none" xmlns="http://www.w3.org/2000/svg">
<path fill-rule="evenodd" clip-rule="evenodd" d="M95.1936 -0.657227V54.0594H94.1936V-0.657227H95.1936ZM17.7723 5.63514L0 47.7668H9.38319L22.0291 17.2556L34.4884 47.7668L44.0153 47.7669H53.2841V34.2849H60.4467H60.567L69.5952 47.7669H80.4293L70.1368 32.72C72.8249 31.7175 75.0019 30.1422 76.6673 27.9951C78.3318 25.849 79.165 23.0701 79.165 19.6591V19.5387C79.165 15.5267 77.9614 12.3161 75.5539 9.9086C72.7043 7.05996 68.6115 5.63517 63.2755 5.63517H44.0153V47.6639L26.4722 5.63514H17.7723ZM67.9401 24.5269C66.7158 25.6159 64.9608 26.1594 62.6736 26.1594H53.2841V14.0014H62.4932C64.7801 14.0014 66.5653 14.5053 67.8499 15.5135C69.1337 16.5217 69.7758 18.0341 69.7758 20.0505V20.1705C69.7758 21.9855 69.1635 23.4377 67.9401 24.5269ZM115.418 22.5188L117.851 28.1489H113.005L115.418 22.5188ZM116.604 19.5631H114.312L108.119 33.7387H110.652L112.1 30.3406H118.756L120.183 33.7387H122.797L116.604 19.5631ZM130.961 33.9799C129.928 33.9799 128.977 33.792 128.105 33.4172C127.234 33.0421 126.478 32.5293 125.837 31.8787C125.196 31.229 124.694 30.4614 124.329 29.5764C123.964 28.6917 123.782 27.7466 123.782 26.7416V26.701C123.782 25.696 123.961 24.7541 124.319 23.876C124.677 22.9985 125.18 22.2272 125.827 21.5636C126.474 20.9004 127.241 20.3776 128.125 19.9953C129.01 19.6132 129.988 19.4222 131.061 19.4222C131.705 19.4222 132.29 19.4762 132.82 19.5831C133.35 19.6908 133.836 19.8413 134.278 20.0355C134.721 20.2299 135.129 20.4612 135.505 20.7292C135.88 20.9975 136.235 21.2922 136.57 21.6142L134.982 23.444C134.419 22.9212 133.822 22.4989 133.192 22.1772C132.562 21.8552 131.845 21.6943 131.041 21.6943C130.371 21.6943 129.75 21.825 129.181 22.0867C128.611 22.3481 128.119 22.7031 127.703 23.1524C127.288 23.6017 126.966 24.1276 126.738 24.7308C126.51 25.3337 126.396 25.9772 126.396 26.6611V26.701C126.396 27.3847 126.51 28.0316 126.738 28.6414C126.966 29.2515 127.288 29.7844 127.703 30.2399C128.119 30.6958 128.611 31.0543 129.181 31.3157C129.75 31.5774 130.371 31.7081 131.041 31.7081C131.898 31.7081 132.636 31.5438 133.253 31.2151C133.869 30.8868 134.479 30.441 135.083 29.878L136.671 31.4866C136.309 31.8759 135.93 32.2205 135.535 32.5221C135.139 32.8237 134.713 33.0851 134.258 33.3063C133.802 33.5278 133.303 33.6953 132.76 33.8093C132.217 33.9227 131.617 33.9799 130.961 33.9799ZM142.944 33.4172C143.816 33.792 144.767 33.9799 145.8 33.9799C146.456 33.9799 147.056 33.9227 147.599 33.8093C148.142 33.6953 148.641 33.5278 149.097 33.3063C149.553 33.0851 149.979 32.8237 150.374 32.5221C150.769 32.2205 151.148 31.8759 151.51 31.4866L149.922 29.878C149.318 30.441 148.708 30.8868 148.092 31.2151C147.475 31.5438 146.738 31.7081 145.88 31.7081C145.21 31.7081 144.589 31.5774 144.02 31.3157C143.45 31.0543 142.958 30.6958 142.542 30.2399C142.127 29.7844 141.805 29.2515 141.577 28.6414C141.349 28.0316 141.235 27.3847 141.235 26.701V26.6611C141.235 25.9772 141.349 25.3337 141.577 24.7308C141.805 24.1276 142.127 23.6017 142.542 23.1524C142.958 22.7031 143.45 22.3481 144.02 22.0867C144.589 21.825 145.21 21.6943 145.88 21.6943C146.684 21.6943 147.401 21.8552 148.032 22.1772C148.661 22.4989 149.258 22.9212 149.821 23.444L151.409 21.6142C151.074 21.2922 150.719 20.9975 150.344 20.7292C149.969 20.4612 149.56 20.2299 149.117 20.0355C148.675 19.8413 148.189 19.6908 147.66 19.5831C147.13 19.4762 146.544 19.4222 145.9 19.4222C144.827 19.4222 143.849 19.6132 142.965 19.9953C142.08 20.3776 141.314 20.9004 140.666 21.5636C140.019 22.2272 139.516 22.9985 139.158 23.876C138.8 24.7541 138.621 25.696 138.621 26.701V26.7416C138.621 27.7466 138.803 28.6917 139.168 29.5764C139.533 30.4614 140.036 31.229 140.676 31.8787C141.317 32.5293 142.073 33.0421 142.944 33.4172ZM154.084 19.6637H164.499V21.8956H156.537V25.5149H163.594V27.7468H156.537V31.5069H164.6V33.7388H154.084V19.6637ZM170.008 19.6637H167.555V33.7388H177.408V31.5069H170.008V19.6637ZM192.117 26.6409C193.005 26.6409 193.71 26.4292 194.235 26.005C194.759 25.5809 195.022 25.0053 195.022 24.2783V24.2381C195.022 23.4709 194.766 22.8884 194.255 22.4913C193.744 22.0938 193.024 21.8956 192.097 21.8956H188.486V26.6409H192.117ZM186.034 19.6637H192.307C193.192 19.6637 193.976 19.7881 194.66 20.0357C195.343 20.2839 195.913 20.6285 196.369 21.0709C196.744 21.4601 197.032 21.9091 197.233 22.4184C197.435 22.928 197.535 23.491 197.535 24.1074V24.1476C197.535 24.7238 197.451 25.2435 197.283 25.7056C197.116 26.1684 196.885 26.5774 196.59 26.9325C196.295 27.2878 195.943 27.5894 195.534 27.8373C195.125 28.0855 194.673 28.2762 194.177 28.4103L197.977 33.7388H195.062L191.593 28.8326H191.552H188.486V33.7388H186.034V19.6637ZM209.239 31.3158C208.658 31.5772 208.021 31.7079 207.327 31.7079C206.633 31.7079 205.992 31.5737 205.405 31.3058C204.818 31.0375 204.313 30.6793 203.893 30.23C203.473 29.7807 203.146 29.2517 202.912 28.6412C202.678 28.0317 202.562 27.3845 202.562 26.7009V26.6613C202.562 25.9773 202.678 25.3339 202.912 24.7307C203.146 24.1275 203.47 23.6015 203.883 23.1526C204.297 22.7033 204.794 22.348 205.375 22.0866C205.956 21.8252 206.592 21.6945 207.287 21.6945C207.981 21.6945 208.621 21.8286 209.209 22.0963C209.796 22.3649 210.3 22.7234 210.721 23.1724C211.141 23.6216 211.468 24.1507 211.702 24.7608C211.935 25.371 212.052 26.0175 212.052 26.7009V26.7414C212.052 27.4251 211.935 28.0685 211.702 28.6717C211.468 29.2749 211.144 29.8012 210.73 30.2501C210.317 30.6994 209.82 31.0544 209.239 31.3158ZM204.311 33.4067C205.209 33.789 206.201 33.9797 207.287 33.9797C208.373 33.9797 209.364 33.7852 210.263 33.3969C211.161 33.0083 211.938 32.482 212.595 31.8188C213.252 31.1546 213.761 30.3843 214.124 29.5058C214.485 28.6283 214.666 27.6934 214.666 26.7009V26.6613C214.666 25.6688 214.485 24.7341 214.124 23.856C213.761 22.9782 213.259 22.2107 212.615 21.5537C211.972 20.8971 211.201 20.3778 210.303 19.9954C209.405 19.6134 208.413 19.4224 207.327 19.4224C206.241 19.4224 205.249 19.6168 204.351 20.0055C203.453 20.3941 202.675 20.9203 202.019 21.5839C201.362 22.2474 200.853 23.0184 200.491 23.8962C200.129 24.7743 199.948 25.7093 199.948 26.7009V26.7414C199.948 27.7339 200.129 28.6682 200.491 29.5464C200.853 30.4245 201.355 31.192 201.999 31.8487C202.642 32.5056 203.413 33.0249 204.311 33.4067ZM224.205 31.5469C225.047 31.5469 225.708 31.386 226.19 31.0646C226.671 30.7426 226.911 30.26 226.911 29.6166V29.5767C226.911 28.9734 226.674 28.5075 226.199 28.1792C225.725 27.8506 225 27.6866 224.024 27.6866H220.115V31.5469H224.205ZM223.482 25.5954C224.283 25.5954 224.925 25.438 225.406 25.1229C225.887 24.8081 226.127 24.3283 226.127 23.6852V23.645C226.127 23.082 225.917 22.6431 225.496 22.3277C225.075 22.0129 224.464 21.8551 223.662 21.8551H220.115V25.5954H223.482ZM217.662 19.6638H223.964C225.583 19.6638 226.807 20.0794 227.637 20.9104C228.266 21.5403 228.58 22.3179 228.58 23.2425V23.2831C228.58 23.7122 228.524 24.0908 228.411 24.4191C228.298 24.7475 228.152 25.0356 227.972 25.2834C227.792 25.5316 227.58 25.7494 227.334 25.9372C227.088 26.1248 226.839 26.2857 226.586 26.4198C226.999 26.5672 227.375 26.7381 227.715 26.9322C228.055 27.127 228.348 27.3583 228.595 27.6262C228.841 27.8946 229.031 28.2094 229.164 28.571C229.298 28.9332 229.365 29.3552 229.365 29.8381V29.878C229.365 30.5082 229.241 31.0646 228.993 31.5469C228.746 32.0297 228.394 32.4316 227.939 32.7533C227.484 33.0753 226.936 33.3201 226.293 33.4875C225.651 33.6553 224.942 33.7389 224.165 33.7389H217.662V19.6638ZM240.847 31.3158C240.266 31.5772 239.629 31.7079 238.935 31.7079C238.241 31.7079 237.6 31.5737 237.013 31.3058C236.426 31.0375 235.921 30.6793 235.501 30.23C235.081 29.7807 234.754 29.2517 234.52 28.6412C234.286 28.0317 234.17 27.3845 234.17 26.7009V26.6613C234.17 25.9773 234.286 25.3339 234.52 24.7307C234.754 24.1275 235.078 23.6015 235.491 23.1526C235.905 22.7033 236.402 22.348 236.983 22.0866C237.564 21.8252 238.2 21.6945 238.895 21.6945C239.589 21.6945 240.229 21.8286 240.817 22.0963C241.404 22.3649 241.908 22.7234 242.329 23.1724C242.749 23.6216 243.076 24.1507 243.31 24.7608C243.543 25.371 243.66 26.0175 243.66 26.7009V26.7414C243.66 27.4251 243.543 28.0685 243.31 28.6717C243.076 29.2749 242.752 29.8012 242.338 30.2501C241.925 30.6994 241.428 31.0544 240.847 31.3158ZM235.919 33.4067C236.817 33.789 237.809 33.9797 238.895 33.9797C239.981 33.9797 240.972 33.7852 241.871 33.3969C242.769 33.0083 243.546 32.482 244.203 31.8188C244.86 31.1546 245.369 30.3843 245.732 29.5058C246.093 28.6283 246.274 27.6934 246.274 26.7009V26.6613C246.274 25.6688 246.093 24.7341 245.732 23.856C245.369 22.9782 244.867 22.2107 244.223 21.5537C243.58 20.8971 242.809 20.3778 241.911 19.9954C241.013 19.6134 240.021 19.4224 238.935 19.4224C237.849 19.4224 236.857 19.6168 235.959 20.0055C235.061 20.3941 234.284 20.9203 233.627 21.5839C232.97 22.2474 232.461 23.0184 232.099 23.8962C231.737 24.7743 231.556 25.7093 231.556 26.7009V26.7414C231.556 27.7339 231.737 28.6682 232.099 29.5464C232.461 30.4245 232.963 31.192 233.607 31.8487C234.25 32.5056 235.021 33.0249 235.919 33.4067ZM252.326 21.9559H247.862V19.6637H259.284V21.9559H254.82V33.7388H252.326V21.9559ZM264.491 33.7389H262.038V19.6638H264.491V33.7389ZM275.228 33.9799C274.196 33.9799 273.244 33.792 272.373 33.4172C271.501 33.0421 270.746 32.5293 270.105 31.8787C269.464 31.229 268.962 30.4614 268.597 29.5764C268.232 28.6917 268.05 27.7466 268.05 26.7416V26.701C268.05 25.696 268.229 24.7541 268.587 23.876C268.945 22.9985 269.447 22.2272 270.095 21.5636C270.742 20.9004 271.508 20.3776 272.393 19.9953C273.278 19.6132 274.256 19.4222 275.329 19.4222C275.972 19.4222 276.558 19.4762 277.088 19.5831C277.617 19.6908 278.104 19.8413 278.546 20.0355C278.988 20.2299 279.397 20.4612 279.772 20.7292C280.148 20.9975 280.503 21.2922 280.838 21.6142L279.25 23.444C278.687 22.9212 278.09 22.4989 277.46 22.1772C276.83 21.8552 276.113 21.6943 275.309 21.6943C274.638 21.6943 274.018 21.825 273.449 22.0867C272.879 22.3481 272.386 22.7031 271.971 23.1524C271.555 23.6017 271.233 24.1276 271.006 24.7308C270.778 25.3337 270.664 25.9772 270.664 26.6611V26.701C270.664 27.3847 270.778 28.0316 271.006 28.6414C271.233 29.2515 271.555 29.7844 271.971 30.2399C272.386 30.6958 272.879 31.0543 273.449 31.3157C274.018 31.5774 274.638 31.7081 275.309 31.7081C276.166 31.7081 276.904 31.5438 277.52 31.2151C278.137 30.8868 278.747 30.441 279.35 29.878L280.939 31.4866C280.577 31.8759 280.198 32.2205 279.803 32.5221C279.407 32.8237 278.981 33.0851 278.526 33.3063C278.07 33.5278 277.571 33.6953 277.028 33.8093C276.485 33.9227 275.885 33.9799 275.228 33.9799ZM285.744 33.3868C286.736 33.7553 287.775 33.94 288.861 33.94C289.598 33.94 290.274 33.8458 290.89 33.6585C291.505 33.4707 292.032 33.1958 292.471 32.8338C292.91 32.4719 293.252 32.0299 293.498 31.5071C293.744 30.9843 293.868 30.3946 293.868 29.7373V29.6974C293.868 29.1209 293.77 28.6151 293.575 28.1793C293.38 27.7435 293.095 27.3618 292.718 27.0332C292.342 26.7049 291.868 26.4268 291.297 26.1984C290.726 25.971 290.071 25.763 289.331 25.5751C288.659 25.4142 288.105 25.2603 287.668 25.1126C287.232 24.9656 286.889 24.8082 286.64 24.6401C286.391 24.4727 286.22 24.2854 286.126 24.0771C286.032 23.8694 285.985 23.6316 285.985 23.3636V23.3231C285.985 22.8543 286.186 22.4585 286.589 22.1371C286.991 21.815 287.554 21.6542 288.278 21.6542C288.921 21.6542 289.557 21.7786 290.188 22.0265C290.818 22.2744 291.454 22.6328 292.098 23.1022L293.425 21.2319C292.701 20.6557 291.927 20.2165 291.103 19.9149C290.278 19.6133 289.35 19.4628 288.318 19.4628C287.62 19.4628 286.978 19.563 286.389 19.7641C285.8 19.9655 285.297 20.2435 284.878 20.5985C284.459 20.9539 284.13 21.3827 283.891 21.8854C283.651 22.3881 283.532 22.941 283.532 23.5443V23.5845C283.532 24.2282 283.636 24.778 283.844 25.2333C284.053 25.6891 284.355 26.0746 284.752 26.3894C285.149 26.7049 285.639 26.9726 286.223 27.1937C286.808 27.4149 287.476 27.6129 288.229 27.7872C288.888 27.9346 289.422 28.0819 289.832 28.2293C290.242 28.3769 290.564 28.5378 290.799 28.7118C291.034 28.8862 291.196 29.0709 291.283 29.2648C291.37 29.4593 291.414 29.6839 291.414 29.9387V29.9789C291.414 30.5149 291.19 30.9437 290.741 31.2655C290.291 31.5875 289.685 31.748 288.921 31.748C288.036 31.748 287.245 31.5906 286.548 31.2758C285.851 30.961 285.161 30.5083 284.477 29.9183L282.99 31.688C283.834 32.4521 284.752 33.0183 285.744 33.3868Z" fill="white"/>
</svg>
