<svg width="15" height="10" viewBox="0 0 15 10" fill="none" xmlns="http://www.w3.org/2000/svg">
<path d="M0.400008 4.99895C0.405608 4.85595 0.464468 4.69067 0.562508 4.58643L3.76251 1.18627C3.97935 0.991411 4.39515 0.910971 4.63751 1.13627C4.87623 1.35817 4.86913 1.78853 4.63131 2.01131L2.38131 4.39893H13.4C13.7314 4.39893 14 4.66757 14 4.99895C14 5.33033 13.7314 5.59898 13.4 5.59898H2.38131L4.63131 7.9866C4.83605 8.1917 4.87389 8.63719 4.63751 8.86163C4.40119 9.08605 3.97045 9.01435 3.76251 8.81161L0.562508 5.41148C0.453008 5.29512 0.399648 5.15859 0.400008 4.99895Z" fill="black" stroke="black" stroke-width="0.5"/>
</svg>
