<svg width="8" height="16" viewBox="0 0 8 16" fill="none" xmlns="http://www.w3.org/2000/svg">
<g clip-path="url(#clip0)">
<path d="M1.59905 3.09785C1.59905 3.49881 1.59905 5.3031 1.59905 5.3031H0V7.99523H1.59905V16H4.88783V7.99523H7.09308C7.09308 7.99523 7.29833 6.70167 7.39857 5.29356C7.11217 5.29356 4.89737 5.29356 4.89737 5.29356C4.89737 5.29356 4.89737 3.72792 4.89737 3.45107C4.89737 3.17422 5.25537 2.80668 5.60859 2.80668C5.96181 2.80668 6.70644 2.80668 7.39857 2.80668C7.39857 2.43914 7.39857 1.17422 7.39857 0C6.47733 0 5.42721 0 4.9642 0C1.5179 0 1.59905 2.6969 1.59905 3.09785Z" fill="white"/>
</g>
<defs>
<clipPath id="clip0">
<rect width="7.40334" height="16" fill="white"/>
</clipPath>
</defs>
</svg>
