<svg width="16" height="14" viewBox="0 0 16 14" fill="none" xmlns="http://www.w3.org/2000/svg">
<g clip-path="url(#clip0)">
<path d="M15.9994 1.54019C15.4112 1.79938 14.7782 1.97882 14.1153 2.05857C14.7932 1.64984 15.3116 1.00685 15.5608 0.244237C14.9278 0.618069 14.225 0.892212 13.4773 1.04174C12.8742 0.398754 12.0218 0 11.0798 0C9.26545 0 7.79505 1.47041 7.79505 3.28474C7.79505 3.54393 7.82496 3.79315 7.87978 4.0324C5.1533 3.89284 2.73087 2.58692 1.11592 0.603115C0.831809 1.0866 0.672307 1.64984 0.672307 2.25296C0.672307 3.39439 1.2505 4.39626 2.13274 4.98442C1.59443 4.96449 1.08601 4.81994 0.647385 4.5757C0.647385 4.59065 0.647385 4.60062 0.647385 4.61558C0.647385 6.20561 1.77885 7.53146 3.27916 7.83551C3.00502 7.91028 2.71592 7.95016 2.41686 7.95016C2.20751 7.95016 1.99816 7.93022 1.79879 7.89034C2.21748 9.19626 3.42869 10.1433 4.86421 10.1682C3.74271 11.0505 2.32714 11.5738 0.786949 11.5738C0.522775 11.5738 0.2586 11.5589 0.00439453 11.529C1.45486 12.4611 3.18446 13.0044 5.03866 13.0044C11.0798 13.0044 14.3795 8 14.3795 3.66355C14.3795 3.519 14.3745 3.37944 14.3695 3.23988C15.0025 2.77632 15.5608 2.19813 15.9994 1.54019Z" fill="white"/>
</g>
<defs>
<clipPath id="clip0">
<rect width="16" height="13.0044" fill="white"/>
</clipPath>
</defs>
</svg>
