<svg width="15" height="14" viewBox="0 0 15 14" fill="none" xmlns="http://www.w3.org/2000/svg">
<g clip-path="url(#clip0)">
<path d="M5.24291 13.3817C5.24291 13.3817 5.28555 5.20203 5.24291 4.35634H8.2419V5.63553C8.23479 5.64264 8.22769 5.64975 8.22058 5.65685H8.2419V5.62843C8.63987 5.01015 9.35053 4.13604 10.9495 4.13604C12.9251 4.13604 14.4033 5.42233 14.4033 8.20101V13.3746H11.4043V8.54213C11.4043 7.3269 10.9708 6.50254 9.88352 6.50254C9.05205 6.50254 8.5617 7.06396 8.34139 7.59695C8.26322 7.78883 8.2419 8.05888 8.2419 8.32893V13.3675H5.24291V13.3817ZM0.580985 13.3817H3.57997V4.34924H0.580985V13.3817ZM2.05916 3.1198H2.08048C3.12515 3.1198 3.77895 2.43046 3.77895 1.55634C3.75763 0.675127 3.12515 0 2.1018 0C1.07845 0 0.40332 0.675127 0.40332 1.55634C0.40332 2.42335 1.05713 3.1198 2.05916 3.1198Z" fill="white"/>
</g>
<defs>
<clipPath id="clip0">
<rect width="14" height="13.3817" fill="white" transform="translate(0.40332)"/>
</clipPath>
</defs>
</svg>
