<svg width="15" height="10" viewBox="0 0 15 10" fill="none" xmlns="http://www.w3.org/2000/svg">
<path d="M14.6 4.99895C14.5944 4.85595 14.5355 4.69067 14.4375 4.58643L11.2375 1.18627C11.0207 0.991411 10.6049 0.910971 10.3625 1.13627C10.1238 1.35817 10.1309 1.78853 10.3687 2.01131L12.6187 4.39893H1.6C1.26864 4.39893 1 4.66757 1 4.99895C1 5.33033 1.26864 5.59898 1.6 5.59898H12.6187L10.3687 7.9866C10.164 8.1917 10.1261 8.63719 10.3625 8.86163C10.5988 9.08605 11.0296 9.01435 11.2375 8.81161L14.4375 5.41148C14.547 5.29512 14.6004 5.15859 14.6 4.99895Z" fill="white" stroke="white" stroke-width="0.5"/>
</svg>
