<svg width="173" height="104" viewBox="0 0 173 104" fill="none" xmlns="http://www.w3.org/2000/svg">
<g clip-path="url(#clip0)">
<path d="M0.729492 87L1.22949 29L58.7295 38.5L64.7295 33L139.229 44.5L171.229 12.5V70L139.229 102.5L64.7295 90.5L58.7295 96L0.729492 87Z" fill="#FAFAFA"/>
<path opacity="0.8" d="M0.729492 29L29.2295 1.5L86.7295 10.5L96.7295 1L171.729 12.5L139.229 44.5L64.7295 33L58.2295 38.5L0.729492 29Z" fill="#E3E3E3"/>
<path d="M96.54 0L86.75 9.61L28.83 0.47L0 28.94L0.05 87.63L59.06 96.94L64.73 91.32L139.37 103.18L172.1 70.65L172.16 11.95L96.54 0ZM96.04 2.59L95.99 37.03L87.85 35.74L87.75 10.72L96.04 2.59ZM28.34 3.07L28.39 32.86L2.33 28.75L28.34 3.07ZM1.55 86.35L1.5 30.13L58 39.05L58.05 95.26L1.55 86.35ZM59.55 94.34L59.5 38.72L63.67 34.59L63.72 90.21L59.55 94.34ZM64.16 31.99L58.49 37.61L29.88 33.1L29.83 2.15L86.25 11.05L86.35 35.5L65.17 32.15L64.16 31.99ZM65.22 89.88L65.17 33.67L138.26 45.25L138.36 101.51L65.22 89.88ZM138.75 43.8L97.49 37.27L97.54 1.68L169.83 13.09L138.75 43.8ZM170.61 70.02L139.86 100.58L139.76 44.92L170.66 14.38L170.61 70.02Z" fill="#231F20"/>
</g>
<defs>
<clipPath id="clip0">
<rect width="172.17" height="103.18" fill="white"/>
</clipPath>
</defs>
</svg>
