<svg width="93" height="71" viewBox="0 0 93 71" fill="none" xmlns="http://www.w3.org/2000/svg">
<g clip-path="url(#clip0)">
<path d="M0.759766 17.5L18.2598 1L91.2598 12.5L91.7598 53L73.7598 70L0.759766 58.5V17.5Z" fill="#FAFAFA"/>
<path opacity="0.8" d="M73.7598 29.5L1.25977 17.5L18.2598 1L91.2598 12.5L73.7598 29.5Z" fill="#E3E3E3"/>
<path d="M91.98 11.73L17.7 0L0 17.44L0.04 59.11L74.32 70.84L92.02 53.39L91.98 11.73ZM73.82 28.57L18.71 19.84V1.68L89.66 12.88L73.82 28.57ZM17.21 19.61L2.33 17.25L17.21 2.59V19.61ZM1.5 18.64L73.32 30.02L73.31 69.17L1.54 57.83L1.5 18.64ZM74.82 68.24L74.83 29.68L90.49 14.16L90.53 52.76L74.82 68.24Z" fill="#231F20"/>
</g>
<defs>
<clipPath id="clip0">
<rect width="92.03" height="70.84" fill="white"/>
</clipPath>
</defs>
</svg>
